<svg width="162" height="50" viewBox="0 0 162 50" fill="none" xmlns="http://www.w3.org/2000/svg">
<rect width="162" height="50" rx="5" fill="#D60000"/>
<path d="M17.544 18.256H19.506L24.996 31H22.404L21.216 28.084H15.69L14.538 31H12L17.544 18.256ZM20.424 26.14L18.462 20.956L16.464 26.14H20.424ZM33.0542 29.704H33.0182C32.7062 30.232 32.2862 30.616 31.7582 30.856C31.2302 31.096 30.6602 31.216 30.0482 31.216C29.3762 31.216 28.7762 31.102 28.2482 30.874C27.7322 30.634 27.2882 30.31 26.9162 29.902C26.5442 29.494 26.2622 29.014 26.0702 28.462C25.8782 27.91 25.7822 27.316 25.7822 26.68C25.7822 26.044 25.8842 25.45 26.0882 24.898C26.2922 24.346 26.5742 23.866 26.9342 23.458C27.3062 23.05 27.7502 22.732 28.2662 22.504C28.7822 22.264 29.3462 22.144 29.9582 22.144C30.3662 22.144 30.7262 22.186 31.0382 22.27C31.3502 22.354 31.6262 22.462 31.8662 22.594C32.1062 22.726 32.3102 22.87 32.4782 23.026C32.6462 23.17 32.7842 23.314 32.8922 23.458H32.9462V17.392H35.1062V31H33.0542V29.704ZM27.9422 26.68C27.9422 27.016 27.9962 27.34 28.1042 27.652C28.2242 27.964 28.3922 28.24 28.6082 28.48C28.8362 28.72 29.1062 28.912 29.4182 29.056C29.7302 29.2 30.0842 29.272 30.4802 29.272C30.8762 29.272 31.2302 29.2 31.5422 29.056C31.8542 28.912 32.1182 28.72 32.3342 28.48C32.5622 28.24 32.7302 27.964 32.8382 27.652C32.9582 27.34 33.0182 27.016 33.0182 26.68C33.0182 26.344 32.9582 26.02 32.8382 25.708C32.7302 25.396 32.5622 25.12 32.3342 24.88C32.1182 24.64 31.8542 24.448 31.5422 24.304C31.2302 24.16 30.8762 24.088 30.4802 24.088C30.0842 24.088 29.7302 24.16 29.4182 24.304C29.1062 24.448 28.8362 24.64 28.6082 24.88C28.3922 25.12 28.2242 25.396 28.1042 25.708C27.9962 26.02 27.9422 26.344 27.9422 26.68ZM44.3921 29.704H44.3561C44.0441 30.232 43.6241 30.616 43.0961 30.856C42.5681 31.096 41.9981 31.216 41.3861 31.216C40.7141 31.216 40.1141 31.102 39.5861 30.874C39.0701 30.634 38.6261 30.31 38.2541 29.902C37.8821 29.494 37.6001 29.014 37.4081 28.462C37.2161 27.91 37.1201 27.316 37.1201 26.68C37.1201 26.044 37.2221 25.45 37.4261 24.898C37.6301 24.346 37.9121 23.866 38.2721 23.458C38.6441 23.05 39.0881 22.732 39.6041 22.504C40.1201 22.264 40.6841 22.144 41.2961 22.144C41.7041 22.144 42.0641 22.186 42.3761 22.27C42.6881 22.354 42.9641 22.462 43.2041 22.594C43.4441 22.726 43.6481 22.87 43.8161 23.026C43.9841 23.17 44.1221 23.314 44.2301 23.458H44.2841V17.392H46.4441V31H44.3921V29.704ZM39.2801 26.68C39.2801 27.016 39.3341 27.34 39.4421 27.652C39.5621 27.964 39.7301 28.24 39.9461 28.48C40.1741 28.72 40.4441 28.912 40.7561 29.056C41.0681 29.2 41.4221 29.272 41.8181 29.272C42.2141 29.272 42.5681 29.2 42.8801 29.056C43.1921 28.912 43.4561 28.72 43.6721 28.48C43.9001 28.24 44.0681 27.964 44.1761 27.652C44.2961 27.34 44.3561 27.016 44.3561 26.68C44.3561 26.344 44.2961 26.02 44.1761 25.708C44.0681 25.396 43.9001 25.12 43.6721 24.88C43.4561 24.64 43.1921 24.448 42.8801 24.304C42.5681 24.16 42.2141 24.088 41.8181 24.088C41.4221 24.088 41.0681 24.16 40.7561 24.304C40.4441 24.448 40.1741 24.64 39.9461 24.88C39.7301 25.12 39.5621 25.396 39.4421 25.708C39.3341 26.02 39.2801 26.344 39.2801 26.68ZM54.4682 18.256H57.9242L61.3262 27.184L64.7642 18.256H68.1842V31H66.0242V20.416H65.9882L62.1182 31H60.5342L56.6642 20.416H56.6282V31H54.4682V18.256ZM69.7103 22.36H72.0863L74.4983 28.354H74.5343L76.6943 22.36H78.9443L74.8583 32.854C74.7023 33.262 74.5283 33.616 74.3363 33.916C74.1563 34.228 73.9403 34.486 73.6883 34.69C73.4363 34.906 73.1363 35.062 72.7883 35.158C72.4523 35.266 72.0443 35.32 71.5643 35.32C71.0003 35.32 70.4483 35.248 69.9083 35.104L70.1783 33.16C70.3463 33.22 70.5203 33.268 70.7003 33.304C70.8923 33.352 71.0843 33.376 71.2763 33.376C71.5403 33.376 71.7623 33.352 71.9423 33.304C72.1223 33.256 72.2723 33.178 72.3923 33.07C72.5243 32.974 72.6323 32.842 72.7163 32.674C72.8003 32.518 72.8903 32.326 72.9863 32.098L73.4003 31.072L69.7103 22.36ZM85.7384 18.256H88.0064V28.948H93.4244V31H85.7384V18.256ZM94.9104 22.36H97.0704V31H94.9104V22.36ZM94.6044 19.426C94.6044 19.078 94.7304 18.778 94.9824 18.526C95.2464 18.262 95.5764 18.13 95.9724 18.13C96.3684 18.13 96.6984 18.256 96.9624 18.508C97.2384 18.748 97.3764 19.054 97.3764 19.426C97.3764 19.798 97.2384 20.11 96.9624 20.362C96.6984 20.602 96.3684 20.722 95.9724 20.722C95.5764 20.722 95.2464 20.596 94.9824 20.344C94.7304 20.08 94.6044 19.774 94.6044 19.426ZM104.158 24.754C103.738 24.166 103.174 23.872 102.466 23.872C102.178 23.872 101.896 23.944 101.62 24.088C101.344 24.232 101.206 24.466 101.206 24.79C101.206 25.054 101.32 25.246 101.548 25.366C101.776 25.486 102.064 25.588 102.412 25.672C102.76 25.756 103.132 25.846 103.528 25.942C103.936 26.026 104.314 26.164 104.662 26.356C105.01 26.536 105.298 26.788 105.526 27.112C105.754 27.436 105.868 27.88 105.868 28.444C105.868 28.96 105.754 29.398 105.526 29.758C105.31 30.106 105.022 30.388 104.662 30.604C104.314 30.82 103.918 30.976 103.474 31.072C103.03 31.168 102.586 31.216 102.142 31.216C101.47 31.216 100.852 31.12 100.288 30.928C99.7242 30.736 99.2202 30.388 98.7762 29.884L100.216 28.534C100.492 28.846 100.786 29.104 101.098 29.308C101.422 29.5 101.812 29.596 102.268 29.596C102.424 29.596 102.586 29.578 102.754 29.542C102.922 29.506 103.078 29.446 103.222 29.362C103.366 29.278 103.48 29.176 103.564 29.056C103.66 28.924 103.708 28.774 103.708 28.606C103.708 28.306 103.594 28.084 103.366 27.94C103.138 27.796 102.85 27.682 102.502 27.598C102.154 27.502 101.776 27.418 101.368 27.346C100.972 27.262 100.6 27.136 100.252 26.968C99.9042 26.788 99.6162 26.542 99.3882 26.23C99.1602 25.918 99.0462 25.486 99.0462 24.934C99.0462 24.454 99.1422 24.04 99.3342 23.692C99.5382 23.332 99.8022 23.038 100.126 22.81C100.45 22.582 100.822 22.414 101.242 22.306C101.662 22.198 102.088 22.144 102.52 22.144C103.096 22.144 103.666 22.246 104.23 22.45C104.794 22.642 105.25 22.978 105.598 23.458L104.158 24.754ZM106.54 24.196V22.36H108.322V19.858H110.482V22.36H112.858V24.196H110.482V27.976C110.482 28.408 110.56 28.75 110.716 29.002C110.884 29.254 111.208 29.38 111.688 29.38C111.88 29.38 112.09 29.362 112.318 29.326C112.546 29.278 112.726 29.206 112.858 29.11V30.928C112.63 31.036 112.348 31.108 112.012 31.144C111.688 31.192 111.4 31.216 111.148 31.216C110.572 31.216 110.098 31.15 109.726 31.018C109.366 30.898 109.078 30.712 108.862 30.46C108.658 30.196 108.514 29.872 108.43 29.488C108.358 29.104 108.322 28.66 108.322 28.156V24.196H106.54Z" fill="white"/>
<path d="M135.141 17V37L141 31.3321L146.859 37V17H135.141ZM145.688 34.2478L141 29.6992L136.312 34.2478V18.1719H145.688V34.2478Z" fill="white"/>
</svg>
