<svg width="126" height="26" viewBox="0 0 126 26" fill="none" xmlns="http://www.w3.org/2000/svg">
<path d="M47.2 2.3H49.3V18.05H57.4V20H47.2V2.3ZM58.675 14.15C58.675 13.2333 58.8333 12.4 59.15 11.65C59.4667 10.9 59.9 10.2583 60.45 9.725C61 9.175 61.6583 8.75 62.425 8.45C63.1917 8.15 64.025 8 64.925 8C65.825 8 66.6583 8.15 67.425 8.45C68.1917 8.75 68.85 9.175 69.4 9.725C69.95 10.2583 70.3833 10.9 70.7 11.65C71.0167 12.4 71.175 13.2333 71.175 14.15C71.175 15.0667 71.0167 15.9 70.7 16.65C70.3833 17.4 69.95 18.05 69.4 18.6C68.85 19.1333 68.1917 19.55 67.425 19.85C66.6583 20.15 65.825 20.3 64.925 20.3C64.025 20.3 63.1917 20.15 62.425 19.85C61.6583 19.55 61 19.1333 60.45 18.6C59.9 18.05 59.4667 17.4 59.15 16.65C58.8333 15.9 58.675 15.0667 58.675 14.15ZM60.775 14.15C60.775 14.7667 60.8667 15.3417 61.05 15.875C61.25 16.3917 61.5333 16.85 61.9 17.25C62.2667 17.6333 62.7 17.9417 63.2 18.175C63.7167 18.3917 64.2917 18.5 64.925 18.5C65.5583 18.5 66.125 18.3917 66.625 18.175C67.1417 17.9417 67.5833 17.6333 67.95 17.25C68.3167 16.85 68.5917 16.3917 68.775 15.875C68.975 15.3417 69.075 14.7667 69.075 14.15C69.075 13.5333 68.975 12.9667 68.775 12.45C68.5917 11.9167 68.3167 11.4583 67.95 11.075C67.5833 10.675 67.1417 10.3667 66.625 10.15C66.125 9.91667 65.5583 9.8 64.925 9.8C64.2917 9.8 63.7167 9.91667 63.2 10.15C62.7 10.3667 62.2667 10.675 61.9 11.075C61.5333 11.4583 61.25 11.9167 61.05 12.45C60.8667 12.9667 60.775 13.5333 60.775 14.15ZM85.8688 19.475C85.8688 21.6083 85.3188 23.225 84.2188 24.325C83.1354 25.4417 81.5604 26 79.4938 26C78.3438 26 77.3021 25.8333 76.3688 25.5C75.4521 25.1667 74.5771 24.5917 73.7438 23.775L75.1438 22.175C75.7604 22.8417 76.4104 23.3417 77.0938 23.675C77.7938 24.025 78.5938 24.2 79.4938 24.2C80.3604 24.2 81.0771 24.0667 81.6438 23.8C82.2271 23.55 82.6854 23.2 83.0188 22.75C83.3521 22.3167 83.5854 21.8167 83.7188 21.25C83.8521 20.6833 83.9188 20.0917 83.9188 19.475V17.975H83.8688C83.4021 18.725 82.7938 19.275 82.0438 19.625C81.2938 19.975 80.5271 20.15 79.7438 20.15C78.8271 20.15 77.9854 20 77.2188 19.7C76.4521 19.4 75.7938 18.9833 75.2438 18.45C74.6938 17.9167 74.2688 17.2833 73.9688 16.55C73.6688 15.8167 73.5188 15.0167 73.5188 14.15C73.5188 13.2 73.6688 12.3417 73.9688 11.575C74.2688 10.8083 74.6854 10.1667 75.2188 9.65C75.7688 9.11667 76.4271 8.70833 77.1938 8.425C77.9604 8.14167 78.8104 8 79.7438 8C80.1438 8 80.5438 8.05 80.9438 8.15C81.3438 8.23333 81.7271 8.375 82.0938 8.575C82.4771 8.75833 82.8188 9 83.1188 9.3C83.4188 9.58333 83.6688 9.91667 83.8688 10.3H83.9188V8.3H85.8688V19.475ZM75.6188 14.15C75.6188 14.75 75.7271 15.3083 75.9438 15.825C76.1604 16.325 76.4521 16.7667 76.8188 17.15C77.2021 17.5167 77.6438 17.8083 78.1438 18.025C78.6438 18.2417 79.1771 18.35 79.7438 18.35C80.4104 18.35 81.0021 18.2333 81.5188 18C82.0354 17.7667 82.4688 17.4583 82.8188 17.075C83.1854 16.675 83.4604 16.225 83.6438 15.725C83.8271 15.2083 83.9188 14.6667 83.9188 14.1C83.9188 13.4667 83.8188 12.8917 83.6188 12.375C83.4188 11.8417 83.1354 11.3833 82.7688 11C82.4021 10.6167 81.9604 10.325 81.4438 10.125C80.9271 9.90833 80.3604 9.8 79.7438 9.8C79.1271 9.8 78.5604 9.91667 78.0438 10.15C77.5438 10.3667 77.1104 10.675 76.7438 11.075C76.3938 11.4583 76.1188 11.9167 75.9188 12.45C75.7188 12.9667 75.6188 13.5333 75.6188 14.15ZM88.802 14.15C88.802 13.2333 88.9603 12.4 89.277 11.65C89.5936 10.9 90.027 10.2583 90.577 9.725C91.127 9.175 91.7853 8.75 92.552 8.45C93.3186 8.15 94.152 8 95.052 8C95.952 8 96.7853 8.15 97.552 8.45C98.3186 8.75 98.977 9.175 99.527 9.725C100.077 10.2583 100.51 10.9 100.827 11.65C101.144 12.4 101.302 13.2333 101.302 14.15C101.302 15.0667 101.144 15.9 100.827 16.65C100.51 17.4 100.077 18.05 99.527 18.6C98.977 19.1333 98.3186 19.55 97.552 19.85C96.7853 20.15 95.952 20.3 95.052 20.3C94.152 20.3 93.3186 20.15 92.552 19.85C91.7853 19.55 91.127 19.1333 90.577 18.6C90.027 18.05 89.5936 17.4 89.277 16.65C88.9603 15.9 88.802 15.0667 88.802 14.15ZM90.902 14.15C90.902 14.7667 90.9936 15.3417 91.177 15.875C91.377 16.3917 91.6603 16.85 92.027 17.25C92.3936 17.6333 92.827 17.9417 93.327 18.175C93.8436 18.3917 94.4186 18.5 95.052 18.5C95.6853 18.5 96.252 18.3917 96.752 18.175C97.2686 17.9417 97.7103 17.6333 98.077 17.25C98.4436 16.85 98.7186 16.3917 98.902 15.875C99.102 15.3417 99.202 14.7667 99.202 14.15C99.202 13.5333 99.102 12.9667 98.902 12.45C98.7186 11.9167 98.4436 11.4583 98.077 11.075C97.7103 10.675 97.2686 10.3667 96.752 10.15C96.252 9.91667 95.6853 9.8 95.052 9.8C94.4186 9.8 93.8436 9.91667 93.327 10.15C92.827 10.3667 92.3936 10.675 92.027 11.075C91.6603 11.4583 91.377 11.9167 91.177 12.45C90.9936 12.9667 90.902 13.5333 90.902 14.15ZM114.521 17.225C114.521 17.7583 114.537 18.2583 114.571 18.725C114.604 19.1917 114.621 19.6167 114.621 20H112.771C112.771 19.6833 112.762 19.3667 112.746 19.05C112.729 18.7333 112.721 18.4083 112.721 18.075H112.671C112.537 18.3583 112.346 18.6333 112.096 18.9C111.862 19.1667 111.579 19.4083 111.246 19.625C110.912 19.825 110.537 19.9833 110.121 20.1C109.704 20.2333 109.254 20.3 108.771 20.3C108.004 20.3 107.337 20.1833 106.771 19.95C106.221 19.7167 105.762 19.3917 105.396 18.975C105.029 18.5583 104.754 18.0583 104.571 17.475C104.404 16.875 104.321 16.225 104.321 15.525V8.3H106.271V15.325C106.271 16.3083 106.487 17.0833 106.921 17.65C107.354 18.2167 108.029 18.5 108.946 18.5C109.579 18.5 110.121 18.3917 110.571 18.175C111.037 17.9583 111.412 17.65 111.696 17.25C111.996 16.85 112.212 16.375 112.346 15.825C112.496 15.275 112.571 14.6667 112.571 14V8.3H114.521V17.225ZM124.612 9.95H121.162V15.8C121.162 16.1833 121.171 16.5417 121.187 16.875C121.204 17.1917 121.271 17.475 121.387 17.725C121.504 17.9583 121.679 18.15 121.912 18.3C122.146 18.4333 122.479 18.5 122.912 18.5C123.196 18.5 123.487 18.4667 123.787 18.4C124.087 18.3333 124.371 18.2333 124.637 18.1L124.712 19.875C124.379 20.025 124.004 20.1333 123.587 20.2C123.187 20.2667 122.804 20.3 122.437 20.3C121.737 20.3 121.179 20.2083 120.762 20.025C120.346 19.8417 120.021 19.5833 119.787 19.25C119.554 18.9167 119.396 18.5083 119.312 18.025C119.246 17.525 119.212 16.975 119.212 16.375V9.95H116.662V8.3H119.212V4.975H121.162V8.3H124.612V9.95Z" fill="#929292"/>
<g clip-path="url(#clip0)">
<path d="M24.218 11.7192H14.3224C13.8911 11.7192 13.5411 11.3692 13.5411 10.9379C13.5411 10.5067 13.8911 10.1567 14.3224 10.1567H24.218C24.6492 10.1567 24.9992 10.5067 24.9992 10.9379C24.9992 11.3692 24.6492 11.7192 24.218 11.7192Z" fill="#929292"/>
<path d="M20.3118 15.6253C20.1117 15.6253 19.9118 15.5492 19.7596 15.3962C19.4545 15.0909 19.4545 14.5961 19.7596 14.291L23.1138 10.937L19.7596 7.58282C19.4545 7.27765 19.4545 6.7829 19.7596 6.47774C20.065 6.17238 20.5597 6.17238 20.8649 6.47774L24.771 10.3839C25.0762 10.689 25.0762 11.1838 24.771 11.489L20.8649 15.3951C20.7118 15.5492 20.5119 15.6253 20.3118 15.6253Z" fill="#929292"/>
<path d="M8.33314 25C8.11018 25 7.89866 24.9687 7.68733 24.9031L1.41864 22.8146C0.565702 22.5167 0 21.7219 0 20.8335V2.08411C0 0.935159 0.934381 0.000778198 2.08333 0.000778198C2.3061 0.000778198 2.51762 0.0320578 2.72914 0.0976685L8.99764 2.18615C9.85077 2.48407 10.4163 3.27884 10.4163 4.16725V22.9167C10.4163 24.0656 9.48209 25 8.33314 25ZM2.08333 1.56323C1.79686 1.56323 1.56245 1.79764 1.56245 2.08411V20.8335C1.56245 21.0553 1.71141 21.2615 1.92388 21.3355L8.1632 23.4147C8.20802 23.4292 8.26638 23.4375 8.33314 23.4375C8.61961 23.4375 8.85383 23.2031 8.85383 22.9167V4.16725C8.85383 3.94543 8.70487 3.73926 8.4924 3.66525L2.25308 1.58612C2.20826 1.57162 2.1499 1.56323 2.08333 1.56323Z" fill="#929292"/>
<path d="M15.8849 8.33392C15.4536 8.33392 15.1037 7.98393 15.1037 7.55269V2.86534C15.1037 2.14762 14.5194 1.56323 13.8017 1.56323H2.08335C1.65211 1.56323 1.30212 1.21324 1.30212 0.782004C1.30212 0.350766 1.65211 0.000778198 2.08335 0.000778198H13.8017C15.3819 0.000778198 16.6661 1.28515 16.6661 2.86534V7.55269C16.6661 7.98393 16.3161 8.33392 15.8849 8.33392Z" fill="#929292"/>
<path d="M13.8016 21.8751H9.63499C9.20375 21.8751 8.85376 21.5251 8.85376 21.0938C8.85376 20.6626 9.20375 20.3126 9.63499 20.3126H13.8016C14.5194 20.3126 15.1036 19.7282 15.1036 19.0105V14.3232C15.1036 13.8919 15.4536 13.5419 15.8848 13.5419C16.316 13.5419 16.666 13.8919 16.666 14.3232V19.0105C16.666 20.5907 15.3818 21.8751 13.8016 21.8751Z" fill="#929292"/>
</g>
<defs>
<clipPath id="clip0">
<rect width="25" height="25" fill="white"/>
</clipPath>
</defs>
</svg>
