<svg width="155" height="30" viewBox="0 0 155 30" fill="none" xmlns="http://www.w3.org/2000/svg">
<path d="M55.6 7.425C55.25 6.85833 54.7833 6.45 54.2 6.2C53.6167 5.93333 53.0083 5.8 52.375 5.8C51.9083 5.8 51.45 5.85833 51 5.975C50.55 6.09167 50.1417 6.26667 49.775 6.5C49.425 6.73333 49.1417 7.04167 48.925 7.425C48.7083 7.80833 48.6 8.25833 48.6 8.775C48.6 9.175 48.6583 9.53333 48.775 9.85C48.9083 10.15 49.1167 10.425 49.4 10.675C49.6833 10.925 50.0667 11.1583 50.55 11.375C51.0333 11.5917 51.625 11.8083 52.325 12.025C53.0083 12.2417 53.6667 12.475 54.3 12.725C54.95 12.975 55.5167 13.2917 56 13.675C56.5 14.0583 56.8917 14.5417 57.175 15.125C57.475 15.6917 57.625 16.4083 57.625 17.275C57.625 18.1583 57.45 18.925 57.1 19.575C56.75 20.225 56.2833 20.7667 55.7 21.2C55.1333 21.6167 54.475 21.925 53.725 22.125C52.975 22.3417 52.2 22.45 51.4 22.45C50.8833 22.45 50.3667 22.4 49.85 22.3C49.3333 22.2167 48.8333 22.0833 48.35 21.9C47.8833 21.7 47.4417 21.45 47.025 21.15C46.6083 20.8333 46.25 20.45 45.95 20L47.75 18.525C48.1333 19.175 48.6667 19.6667 49.35 20C50.0333 20.3333 50.7583 20.5 51.525 20.5C51.975 20.5 52.425 20.4333 52.875 20.3C53.3417 20.1667 53.7583 19.975 54.125 19.725C54.4917 19.4583 54.7917 19.1333 55.025 18.75C55.2583 18.3667 55.375 17.925 55.375 17.425C55.375 16.875 55.2833 16.4333 55.1 16.1C54.9167 15.75 54.6333 15.45 54.25 15.2C53.8667 14.95 53.3833 14.725 52.8 14.525C52.2167 14.325 51.5333 14.0917 50.75 13.825C50.1167 13.625 49.5333 13.4 49 13.15C48.4667 12.8833 48 12.5667 47.6 12.2C47.2167 11.8167 46.9083 11.3667 46.675 10.85C46.4583 10.3167 46.35 9.68333 46.35 8.95C46.35 8.1 46.5167 7.35833 46.85 6.725C47.1833 6.09167 47.6333 5.56667 48.2 5.15C48.7667 4.71667 49.4083 4.39167 50.125 4.175C50.8417 3.95833 51.5917 3.85 52.375 3.85C53.375 3.85 54.2833 4.00833 55.1 4.325C55.9333 4.625 56.675 5.15833 57.325 5.925L55.6 7.425ZM70.9416 19.225C70.9416 19.7583 70.9583 20.2583 70.9916 20.725C71.0249 21.1917 71.0416 21.6167 71.0416 22H69.1916C69.1916 21.6833 69.1833 21.3667 69.1666 21.05C69.1499 20.7333 69.1416 20.4083 69.1416 20.075H69.0916C68.9583 20.3583 68.7666 20.6333 68.5166 20.9C68.2833 21.1667 67.9999 21.4083 67.6666 21.625C67.3333 21.825 66.9583 21.9833 66.5416 22.1C66.1249 22.2333 65.6749 22.3 65.1916 22.3C64.4249 22.3 63.7583 22.1833 63.1916 21.95C62.6416 21.7167 62.1833 21.3917 61.8166 20.975C61.4499 20.5583 61.1749 20.0583 60.9916 19.475C60.8249 18.875 60.7416 18.225 60.7416 17.525V10.3H62.6916V17.325C62.6916 18.3083 62.9083 19.0833 63.3416 19.65C63.7749 20.2167 64.4499 20.5 65.3666 20.5C65.9999 20.5 66.5416 20.3917 66.9916 20.175C67.4583 19.9583 67.8333 19.65 68.1166 19.25C68.4166 18.85 68.6333 18.375 68.7666 17.825C68.9166 17.275 68.9916 16.6667 68.9916 16V10.3H70.9416V19.225ZM74.5332 3.1H76.4832V12H76.5332C77.0665 11.3667 77.6832 10.875 78.3832 10.525C79.0999 10.175 79.8832 10 80.7332 10C81.6499 10 82.4832 10.1583 83.2332 10.475C83.9999 10.775 84.6499 11.2 85.1832 11.75C85.7165 12.3 86.1332 12.95 86.4332 13.7C86.7332 14.45 86.8832 15.2667 86.8832 16.15C86.8832 17.0333 86.7332 17.85 86.4332 18.6C86.1332 19.35 85.7165 20 85.1832 20.55C84.6665 21.1 84.0499 21.5333 83.3332 21.85C82.6165 22.15 81.8499 22.3 81.0332 22.3C79.9832 22.3 79.0582 22.075 78.2582 21.625C77.4749 21.1583 76.8999 20.5917 76.5332 19.925H76.4832V22H74.5332V3.1ZM76.4832 16.15C76.4832 16.7667 76.5749 17.3417 76.7582 17.875C76.9582 18.3917 77.2415 18.85 77.6082 19.25C77.9749 19.6333 78.4082 19.9417 78.9082 20.175C79.4249 20.3917 79.9999 20.5 80.6332 20.5C81.2665 20.5 81.8332 20.3917 82.3332 20.175C82.8499 19.9417 83.2915 19.6333 83.6582 19.25C84.0249 18.85 84.2999 18.3917 84.4832 17.875C84.6832 17.3417 84.7832 16.7667 84.7832 16.15C84.7832 15.5333 84.6832 14.9667 84.4832 14.45C84.2999 13.9167 84.0249 13.4583 83.6582 13.075C83.2915 12.675 82.8499 12.3667 82.3332 12.15C81.8332 11.9167 81.2665 11.8 80.6332 11.8C79.9999 11.8 79.4249 11.9167 78.9082 12.15C78.4082 12.3667 77.9749 12.675 77.6082 13.075C77.2415 13.4583 76.9582 13.9167 76.7582 14.45C76.5749 14.9667 76.4832 15.5333 76.4832 16.15ZM90.1664 18.925C90.5497 19.4083 90.9664 19.7917 91.4164 20.075C91.8831 20.3583 92.4664 20.5 93.1664 20.5C93.4664 20.5 93.7664 20.4667 94.0664 20.4C94.3831 20.3333 94.6664 20.225 94.9164 20.075C95.1664 19.925 95.3664 19.7417 95.5164 19.525C95.6664 19.2917 95.7414 19.0167 95.7414 18.7C95.7414 18.3833 95.6664 18.125 95.5164 17.925C95.3831 17.725 95.1997 17.5583 94.9664 17.425C94.7331 17.275 94.4664 17.1583 94.1664 17.075C93.8664 16.9917 93.5581 16.9167 93.2414 16.85C92.6914 16.7333 92.1664 16.6 91.6664 16.45C91.1664 16.3 90.7247 16.1083 90.3414 15.875C89.9747 15.625 89.6747 15.3083 89.4414 14.925C89.2247 14.5417 89.1164 14.05 89.1164 13.45C89.1164 12.8833 89.2414 12.3833 89.4914 11.95C89.7414 11.5167 90.0747 11.1583 90.4914 10.875C90.9081 10.5917 91.3747 10.375 91.8914 10.225C92.4081 10.075 92.9414 10 93.4914 10C94.3247 10 95.0914 10.1667 95.7914 10.5C96.5081 10.8333 97.0664 11.375 97.4664 12.125L95.8414 13.2C95.5914 12.7833 95.2581 12.45 94.8414 12.2C94.4414 11.9333 93.9497 11.8 93.3664 11.8C93.0997 11.8 92.8247 11.8333 92.5414 11.9C92.2747 11.9667 92.0331 12.0667 91.8164 12.2C91.5997 12.3333 91.4164 12.5083 91.2664 12.725C91.1331 12.925 91.0664 13.1583 91.0664 13.425C91.0664 13.675 91.1414 13.8917 91.2914 14.075C91.4581 14.2417 91.6747 14.3917 91.9414 14.525C92.2247 14.6583 92.5414 14.775 92.8914 14.875C93.2581 14.975 93.6331 15.0583 94.0164 15.125C94.5331 15.225 95.0247 15.3583 95.4914 15.525C95.9581 15.675 96.3664 15.8833 96.7164 16.15C97.0664 16.4167 97.3414 16.75 97.5414 17.15C97.7414 17.55 97.8414 18.0417 97.8414 18.625C97.8414 19.2917 97.7081 19.8583 97.4414 20.325C97.1747 20.7917 96.8164 21.175 96.3664 21.475C95.9331 21.7583 95.4331 21.9667 94.8664 22.1C94.3164 22.2333 93.7497 22.3 93.1664 22.3C92.1664 22.3 91.2997 22.15 90.5664 21.85C89.8497 21.5333 89.1997 20.9583 88.6164 20.125L90.1664 18.925ZM108.886 13.225C108.469 12.725 108.019 12.3667 107.536 12.15C107.053 11.9167 106.519 11.8 105.936 11.8C105.286 11.8 104.711 11.9167 104.211 12.15C103.711 12.3667 103.294 12.675 102.961 13.075C102.644 13.475 102.403 13.9417 102.236 14.475C102.069 14.9917 101.986 15.55 101.986 16.15C101.986 16.75 102.078 17.3167 102.261 17.85C102.461 18.3667 102.728 18.825 103.061 19.225C103.411 19.625 103.828 19.9417 104.311 20.175C104.794 20.3917 105.336 20.5 105.936 20.5C107.219 20.5 108.211 20.0167 108.911 19.05L110.361 20.425C109.794 21.075 109.128 21.55 108.361 21.85C107.594 22.15 106.786 22.3 105.936 22.3C105.036 22.3 104.211 22.15 103.461 21.85C102.711 21.55 102.069 21.125 101.536 20.575C101.019 20.025 100.611 19.375 100.311 18.625C100.028 17.875 99.8859 17.05 99.8859 16.15C99.8859 15.2667 100.028 14.45 100.311 13.7C100.611 12.95 101.028 12.3 101.561 11.75C102.094 11.2 102.728 10.775 103.461 10.475C104.211 10.1583 105.036 10 105.936 10C106.803 10 107.619 10.15 108.386 10.45C109.169 10.75 109.853 11.2167 110.436 11.85L108.886 13.225ZM112.621 13.075C112.621 12.5417 112.605 12.0417 112.571 11.575C112.538 11.1083 112.521 10.6833 112.521 10.3H114.371C114.371 10.6167 114.38 10.9333 114.396 11.25C114.413 11.5667 114.421 11.8917 114.421 12.225H114.471C114.605 11.9417 114.788 11.6667 115.021 11.4C115.271 11.1333 115.563 10.9 115.896 10.7C116.23 10.4833 116.605 10.3167 117.021 10.2C117.438 10.0667 117.888 10 118.371 10C118.505 10 118.638 10.0083 118.771 10.025C118.905 10.0417 119.038 10.075 119.171 10.125L119.046 12.1C118.713 12 118.363 11.95 117.996 11.95C116.796 11.95 115.921 12.3417 115.371 13.125C114.838 13.8917 114.571 14.95 114.571 16.3V22H112.621V13.075ZM121.586 10.3H123.536V22H121.586V10.3ZM121.136 5.725C121.136 5.34167 121.269 5.00833 121.536 4.725C121.819 4.44167 122.161 4.3 122.561 4.3C122.961 4.3 123.294 4.44167 123.561 4.725C123.844 5.00833 123.986 5.34167 123.986 5.725C123.986 6.14167 123.852 6.48333 123.586 6.75C123.319 7.01667 122.977 7.15 122.561 7.15C122.144 7.15 121.802 7.01667 121.536 6.75C121.269 6.48333 121.136 6.14167 121.136 5.725ZM127.316 3.1H129.266V12H129.316C129.85 11.3667 130.466 10.875 131.166 10.525C131.883 10.175 132.666 10 133.516 10C134.433 10 135.266 10.1583 136.016 10.475C136.783 10.775 137.433 11.2 137.966 11.75C138.5 12.3 138.916 12.95 139.216 13.7C139.516 14.45 139.666 15.2667 139.666 16.15C139.666 17.0333 139.516 17.85 139.216 18.6C138.916 19.35 138.5 20 137.966 20.55C137.45 21.1 136.833 21.5333 136.116 21.85C135.4 22.15 134.633 22.3 133.816 22.3C132.766 22.3 131.841 22.075 131.041 21.625C130.258 21.1583 129.683 20.5917 129.316 19.925H129.266V22H127.316V3.1ZM129.266 16.15C129.266 16.7667 129.358 17.3417 129.541 17.875C129.741 18.3917 130.025 18.85 130.391 19.25C130.758 19.6333 131.191 19.9417 131.691 20.175C132.208 20.3917 132.783 20.5 133.416 20.5C134.05 20.5 134.616 20.3917 135.116 20.175C135.633 19.9417 136.075 19.6333 136.441 19.25C136.808 18.85 137.083 18.3917 137.266 17.875C137.466 17.3417 137.566 16.7667 137.566 16.15C137.566 15.5333 137.466 14.9667 137.266 14.45C137.083 13.9167 136.808 13.4583 136.441 13.075C136.075 12.675 135.633 12.3667 135.116 12.15C134.616 11.9167 134.05 11.8 133.416 11.8C132.783 11.8 132.208 11.9167 131.691 12.15C131.191 12.3667 130.758 12.675 130.391 13.075C130.025 13.4583 129.741 13.9167 129.541 14.45C129.358 14.9667 129.266 15.5333 129.266 16.15ZM153.15 19.875C152.45 20.775 151.683 21.4083 150.85 21.775C150.016 22.125 149.05 22.3 147.95 22.3C147.033 22.3 146.208 22.1417 145.475 21.825C144.741 21.4917 144.116 21.05 143.6 20.5C143.1 19.95 142.708 19.3 142.425 18.55C142.158 17.8 142.025 17 142.025 16.15C142.025 15.25 142.175 14.425 142.475 13.675C142.775 12.9083 143.191 12.2583 143.725 11.725C144.258 11.175 144.891 10.75 145.625 10.45C146.358 10.15 147.158 10 148.025 10C148.841 10 149.591 10.1417 150.275 10.425C150.958 10.6917 151.541 11.0917 152.025 11.625C152.525 12.1417 152.908 12.7833 153.175 13.55C153.441 14.3 153.575 15.1583 153.575 16.125V16.75H144.125C144.158 17.25 144.275 17.7333 144.475 18.2C144.691 18.65 144.966 19.05 145.3 19.4C145.633 19.7333 146.025 20 146.475 20.2C146.925 20.4 147.416 20.5 147.95 20.5C148.8 20.5 149.516 20.35 150.1 20.05C150.683 19.75 151.208 19.3083 151.675 18.725L153.15 19.875ZM151.475 15.1C151.441 14.1 151.116 13.3 150.5 12.7C149.883 12.1 149.033 11.8 147.95 11.8C146.866 11.8 145.991 12.1 145.325 12.7C144.658 13.3 144.258 14.1 144.125 15.1H151.475Z" fill="#929292"/>
<g clip-path="url(#clip0)">
<path d="M22.9871 4.97363C23.0001 4.97458 23.0132 4.97553 23.0265 4.97553C23.049 4.97553 23.0716 4.97363 23.0936 4.97055C23.6843 4.98265 24.1571 5.46443 24.1578 6.05513C24.1578 6.32355 24.3754 6.54118 24.6439 6.54118C24.9123 6.54118 25.1299 6.32355 25.1299 6.05513C25.1287 5.08897 24.4561 4.25311 23.5125 4.04521V3.57815C23.5125 3.30973 23.2949 3.0921 23.0265 3.0921C22.7581 3.0921 22.5404 3.30973 22.5404 3.57815V4.06728C21.5427 4.33404 20.8972 5.29925 21.0317 6.32331C21.1663 7.34738 22.0392 8.113 23.072 8.113C23.6718 8.113 24.1578 8.59928 24.1578 9.19901C24.1578 9.7985 23.6718 10.2848 23.072 10.2848C22.4723 10.2848 21.9863 9.7985 21.9863 9.19901C21.9863 8.93059 21.7686 8.71296 21.5002 8.71296C21.2318 8.71296 21.0142 8.93059 21.0142 9.19901C21.0154 10.1303 21.641 10.945 22.5404 11.1869V11.7194C22.5404 11.9878 22.7581 12.2055 23.0265 12.2055C23.2949 12.2055 23.5125 11.9878 23.5125 11.7194V11.2092C24.539 10.9844 25.2312 10.0223 25.118 8.97758C25.0051 7.93287 24.1229 7.14114 23.072 7.14138C22.4889 7.14162 22.0098 6.6812 21.9867 6.09856C21.964 5.51593 22.4056 5.0192 22.9871 4.97387V4.97363Z" fill="#929292"/>
<path d="M23.0998 0.715744C20.1097 0.715744 17.558 2.66681 16.602 5.27931H4.53842C4.27119 5.27931 4.05427 5.5202 4.05237 5.78719L3.9375 22.8377H0.498863C0.230445 22.8377 0 23.0321 0 23.301V25.4647C0.00617049 27.5017 1.61051 29.1751 3.64535 29.2672V29.2778H18.6521V29.2636C18.7736 29.2681 18.8236 29.2778 18.9005 29.2778H18.911C21.017 29.2745 22.7227 27.5662 22.7227 25.4602V14.5204C22.8442 14.527 22.9728 14.5306 23.0986 14.5306C26.9037 14.5306 30.0001 11.4282 30.0001 7.62291C30.0001 3.81785 26.9051 0.715744 23.0998 0.715744ZM3.83023 28.3057H3.82715C2.25485 28.3036 0.979214 27.0322 0.972094 25.4597V23.8098H15.0675V25.4528C15.0682 26.4672 15.4733 27.4395 16.1929 28.1546C16.2439 28.2056 16.3073 28.245 16.3607 28.3057H3.83023ZM21.7506 25.4597C21.7508 27.0294 20.48 28.3027 18.9105 28.3057H18.9012C17.3254 28.3029 16.0474 27.0289 16.0396 25.4533V23.301C16.0436 23.1766 15.9961 23.0563 15.9081 22.9685C15.82 22.8807 15.6997 22.8335 15.5756 22.8377H4.9096L5.02114 6.2514H16.3322C16.246 6.69639 16.2014 7.14826 16.199 7.60132C16.1981 8.55941 16.3979 9.50682 16.7857 10.3828H12.1948C11.9262 10.3828 11.7088 10.6004 11.7088 10.8688C11.7088 11.1373 11.9262 11.3549 12.1948 11.3549H17.3131C18.3158 12.9317 19.9187 14.031 21.7506 14.3988V25.4597ZM23.0998 13.5587C19.8256 13.5587 17.1711 10.9044 17.1714 7.63003C17.1714 4.35563 19.8256 1.70136 23.1 1.70136C26.3742 1.70136 29.0285 4.35587 29.0285 7.63003C29.0249 10.9028 26.3728 13.5551 23.0998 13.5587Z" fill="#929292"/>
<path d="M9.07497 13.6176C8.21703 13.6176 7.51929 14.2932 7.51929 15.1239C7.51929 15.9545 8.21703 16.6302 9.07497 16.6302C9.93291 16.6302 10.6309 15.9545 10.6309 15.1239C10.6309 14.2932 9.93291 13.6176 9.07497 13.6176ZM9.07497 15.6581C8.75292 15.6581 8.49138 15.4184 8.49138 15.1239C8.49138 14.8291 8.75316 14.5897 9.07497 14.5897C9.39679 14.5897 9.6588 14.8294 9.6588 15.1239C9.6588 15.4184 9.39679 15.6581 9.07497 15.6581Z" fill="#929292"/>
<path d="M11.7087 15.1218C11.7087 15.3902 11.9261 15.6078 12.1948 15.6078H18.6748C18.9432 15.6078 19.1608 15.3902 19.1608 15.1218C19.1608 14.8533 18.9432 14.6357 18.6748 14.6357H12.1948C11.9261 14.6357 11.7087 14.8533 11.7087 15.1218Z" fill="#929292"/>
<path d="M9.07497 9.39243C8.21703 9.39243 7.51929 10.0683 7.51929 10.899C7.51929 11.7296 8.21703 12.4053 9.07497 12.4053C9.93291 12.4053 10.6309 11.7296 10.6309 10.899C10.6309 10.0683 9.93291 9.39243 9.07497 9.39243ZM9.07497 11.4332C8.75292 11.4332 8.49138 11.1935 8.49138 10.899C8.49138 10.6045 8.75316 10.3645 9.07497 10.3645C9.39679 10.3645 9.6588 10.6042 9.6588 10.899C9.6588 11.1935 9.39679 11.4334 9.07497 11.4334V11.4332Z" fill="#929292"/>
<path d="M9.07497 17.8422C8.21703 17.8422 7.51929 18.5179 7.51929 19.3485C7.51929 20.1792 8.21703 20.8548 9.07497 20.8548C9.93291 20.8548 10.6309 20.1792 10.6309 19.3485C10.6309 18.5179 9.93291 17.8422 9.07497 17.8422ZM9.07497 19.8828C8.75292 19.8828 8.49138 19.6433 8.49138 19.3485C8.49138 19.054 8.75316 18.8143 9.07497 18.8143C9.39679 18.8143 9.6588 19.054 9.6588 19.3485C9.6588 19.6431 9.39679 19.8828 9.07497 19.8828Z" fill="#929292"/>
<path d="M18.6748 18.8886H12.1948C11.9261 18.8886 11.7087 19.1062 11.7087 19.3747C11.7087 19.6431 11.9261 19.8607 12.1948 19.8607H18.6748C18.9432 19.8607 19.1608 19.6431 19.1608 19.3747C19.1608 19.1062 18.9432 18.8886 18.6748 18.8886Z" fill="#929292"/>
</g>
<defs>
<clipPath id="clip0">
<rect width="30" height="30" fill="white"/>
</clipPath>
</defs>
</svg>
