<svg width="119" height="25" viewBox="0 0 119 25" fill="none" xmlns="http://www.w3.org/2000/svg">
<path d="M49.2 2.3H54.45C55.2667 2.3 56.0417 2.38333 56.775 2.55C57.525 2.7 58.1833 2.96667 58.75 3.35C59.3333 3.71667 59.7917 4.21667 60.125 4.85C60.475 5.46667 60.65 6.23333 60.65 7.15C60.65 8.11667 60.4667 8.91667 60.1 9.55C59.7333 10.1833 59.2583 10.6833 58.675 11.05C58.1083 11.4167 57.4833 11.675 56.8 11.825C56.1167 11.975 55.4667 12.05 54.85 12.05H51.3V20H49.2V2.3ZM51.3 10.1H54.85C55.9 10.1 56.75 9.86667 57.4 9.4C58.0667 8.91667 58.4 8.175 58.4 7.175C58.4 6.175 58.0667 5.44167 57.4 4.975C56.75 4.49167 55.9 4.25 54.85 4.25H51.3V10.1ZM63.6693 11.075C63.6693 10.5417 63.6527 10.0417 63.6193 9.575C63.586 9.10833 63.5693 8.68333 63.5693 8.3H65.4193C65.4193 8.61667 65.4277 8.93333 65.4443 9.25C65.461 9.56667 65.4693 9.89167 65.4693 10.225H65.5193C65.6527 9.94167 65.836 9.66667 66.0693 9.4C66.3193 9.13333 66.611 8.9 66.9443 8.7C67.2777 8.48333 67.6527 8.31667 68.0693 8.2C68.486 8.06667 68.936 8 69.4193 8C69.5527 8 69.686 8.00833 69.8193 8.025C69.9527 8.04167 70.086 8.075 70.2193 8.125L70.0943 10.1C69.761 10 69.411 9.95 69.0443 9.95C67.8443 9.95 66.9693 10.3417 66.4193 11.125C65.886 11.8917 65.6193 12.95 65.6193 14.3V20H63.6693V11.075ZM71.3439 14.15C71.3439 13.2333 71.5023 12.4 71.8189 11.65C72.1356 10.9 72.5689 10.2583 73.1189 9.725C73.6689 9.175 74.3273 8.75 75.0939 8.45C75.8606 8.15 76.6939 8 77.5939 8C78.4939 8 79.3273 8.15 80.0939 8.45C80.8606 8.75 81.5189 9.175 82.0689 9.725C82.6189 10.2583 83.0523 10.9 83.3689 11.65C83.6856 12.4 83.8439 13.2333 83.8439 14.15C83.8439 15.0667 83.6856 15.9 83.3689 16.65C83.0523 17.4 82.6189 18.05 82.0689 18.6C81.5189 19.1333 80.8606 19.55 80.0939 19.85C79.3273 20.15 78.4939 20.3 77.5939 20.3C76.6939 20.3 75.8606 20.15 75.0939 19.85C74.3273 19.55 73.6689 19.1333 73.1189 18.6C72.5689 18.05 72.1356 17.4 71.8189 16.65C71.5023 15.9 71.3439 15.0667 71.3439 14.15ZM73.4439 14.15C73.4439 14.7667 73.5356 15.3417 73.7189 15.875C73.9189 16.3917 74.2023 16.85 74.5689 17.25C74.9356 17.6333 75.3689 17.9417 75.8689 18.175C76.3856 18.3917 76.9606 18.5 77.5939 18.5C78.2273 18.5 78.7939 18.3917 79.2939 18.175C79.8106 17.9417 80.2523 17.6333 80.6189 17.25C80.9856 16.85 81.2606 16.3917 81.4439 15.875C81.6439 15.3417 81.7439 14.7667 81.7439 14.15C81.7439 13.5333 81.6439 12.9667 81.4439 12.45C81.2606 11.9167 80.9856 11.4583 80.6189 11.075C80.2523 10.675 79.8106 10.3667 79.2939 10.15C78.7939 9.91667 78.2273 9.8 77.5939 9.8C76.9606 9.8 76.3856 9.91667 75.8689 10.15C75.3689 10.3667 74.9356 10.675 74.5689 11.075C74.2023 11.4583 73.9189 11.9167 73.7189 12.45C73.5356 12.9667 73.4439 13.5333 73.4439 14.15ZM92.6627 9.95H89.8127V20H87.8627V9.95H85.3127V8.3H87.8627V5.675C87.8627 4.95833 87.9294 4.30833 88.0627 3.725C88.196 3.125 88.421 2.60833 88.7377 2.175C89.071 1.74167 89.5044 1.40833 90.0377 1.175C90.571 0.925 91.2294 0.8 92.0127 0.8C92.2627 0.8 92.5294 0.825 92.8127 0.874999C93.096 0.924999 93.3294 0.999999 93.5127 1.1L93.2377 2.85C92.771 2.68333 92.3294 2.6 91.9127 2.6C91.4127 2.6 91.021 2.69167 90.7377 2.875C90.4544 3.04167 90.2377 3.28333 90.0877 3.6C89.9544 3.9 89.871 4.26667 89.8377 4.7C89.821 5.13333 89.8127 5.6 89.8127 6.1V8.3H92.6627V9.95ZM94.4627 8.3H96.4127V20H94.4627V8.3ZM94.0127 3.725C94.0127 3.34167 94.146 3.00833 94.4127 2.725C94.696 2.44167 95.0377 2.3 95.4377 2.3C95.8377 2.3 96.171 2.44167 96.4377 2.725C96.721 3.00833 96.8627 3.34167 96.8627 3.725C96.8627 4.14167 96.7294 4.48333 96.4627 4.75C96.196 5.01667 95.8544 5.15 95.4377 5.15C95.021 5.15 94.6794 5.01667 94.4127 4.75C94.146 4.48333 94.0127 4.14167 94.0127 3.725ZM100.465 1.1H102.415V20H100.465V1.1ZM116.746 17.875C116.046 18.775 115.28 19.4083 114.446 19.775C113.613 20.125 112.646 20.3 111.546 20.3C110.63 20.3 109.805 20.1417 109.071 19.825C108.338 19.4917 107.713 19.05 107.196 18.5C106.696 17.95 106.305 17.3 106.021 16.55C105.755 15.8 105.621 15 105.621 14.15C105.621 13.25 105.771 12.425 106.071 11.675C106.371 10.9083 106.788 10.2583 107.321 9.725C107.855 9.175 108.488 8.75 109.221 8.45C109.955 8.15 110.755 8 111.621 8C112.438 8 113.188 8.14167 113.871 8.425C114.555 8.69167 115.138 9.09167 115.621 9.625C116.121 10.1417 116.505 10.7833 116.771 11.55C117.038 12.3 117.171 13.1583 117.171 14.125V14.75H107.721C107.755 15.25 107.871 15.7333 108.071 16.2C108.288 16.65 108.563 17.05 108.896 17.4C109.23 17.7333 109.621 18 110.071 18.2C110.521 18.4 111.013 18.5 111.546 18.5C112.396 18.5 113.113 18.35 113.696 18.05C114.28 17.75 114.805 17.3083 115.271 16.725L116.746 17.875ZM115.071 13.1C115.038 12.1 114.713 11.3 114.096 10.7C113.48 10.1 112.63 9.8 111.546 9.8C110.463 9.8 109.588 10.1 108.921 10.7C108.255 11.3 107.855 12.1 107.721 13.1H115.071Z" fill="#929292"/>
<path d="M12.5 0C8.86528 0 5.9082 2.95708 5.9082 6.5918C5.9082 10.2265 8.86528 13.1836 12.5 13.1836C16.1347 13.1836 19.0918 10.2265 19.0918 6.5918C19.0918 2.95708 16.1347 0 12.5 0ZM12.5 11.7188C9.673 11.7188 7.37305 9.4188 7.37305 6.5918C7.37305 3.7648 9.673 1.46484 12.5 1.46484C15.327 1.46484 17.627 3.7648 17.627 6.5918C17.627 9.4188 15.327 11.7188 12.5 11.7188Z" fill="#929292"/>
<path d="M14.5426 14.6973H10.4573C7.07832 14.6973 3.7436 16.2574 1.51367 19.6024V25H23.4863V19.6024C21.2596 16.2622 17.9258 14.6973 14.5426 14.6973ZM22.0215 23.5352H22.0215H2.97852V20.0506C4.68901 17.6115 7.46836 16.1621 10.4574 16.1621H14.5427C17.5317 16.1621 20.311 17.6115 22.0215 20.0506V23.5352Z" fill="#929292"/>
</svg>
