<svg width="150" height="50" viewBox="0 0 150 50" fill="none" xmlns="http://www.w3.org/2000/svg">
<rect width="150" height="50" rx="5" fill="#CDCDCD" fill-opacity="0.7"/>
<path d="M14.422 18.256H18.85C19.462 18.256 20.05 18.316 20.614 18.436C21.19 18.544 21.7 18.736 22.144 19.012C22.588 19.288 22.942 19.66 23.206 20.128C23.47 20.596 23.602 21.19 23.602 21.91C23.602 22.834 23.344 23.608 22.828 24.232C22.324 24.856 21.598 25.234 20.65 25.366L24.034 31H21.298L18.346 25.6H16.69V31H14.422V18.256ZM18.454 23.656C18.778 23.656 19.102 23.644 19.426 23.62C19.75 23.584 20.044 23.512 20.308 23.404C20.584 23.284 20.806 23.11 20.974 22.882C21.142 22.642 21.226 22.312 21.226 21.892C21.226 21.52 21.148 21.22 20.992 20.992C20.836 20.764 20.632 20.596 20.38 20.488C20.128 20.368 19.846 20.29 19.534 20.254C19.234 20.218 18.94 20.2 18.652 20.2H16.69V23.656H18.454ZM27.2899 27.436C27.3619 28.084 27.6139 28.588 28.0459 28.948C28.4779 29.308 28.9999 29.488 29.6119 29.488C30.1519 29.488 30.6019 29.38 30.9619 29.164C31.3339 28.936 31.6579 28.654 31.9339 28.318L33.4819 29.488C32.9779 30.112 32.4139 30.556 31.7899 30.82C31.1659 31.084 30.5119 31.216 29.8279 31.216C29.1799 31.216 28.5679 31.108 27.9919 30.892C27.4159 30.676 26.9179 30.37 26.4979 29.974C26.0779 29.578 25.7419 29.104 25.4899 28.552C25.2499 27.988 25.1299 27.364 25.1299 26.68C25.1299 25.996 25.2499 25.378 25.4899 24.826C25.7419 24.262 26.0779 23.782 26.4979 23.386C26.9179 22.99 27.4159 22.684 27.9919 22.468C28.5679 22.252 29.1799 22.144 29.8279 22.144C30.4279 22.144 30.9739 22.252 31.4659 22.468C31.9699 22.672 32.3959 22.972 32.7439 23.368C33.1039 23.764 33.3799 24.256 33.5719 24.844C33.7759 25.42 33.8779 26.086 33.8779 26.842V27.436H27.2899ZM31.7179 25.816C31.7059 25.18 31.5079 24.682 31.1239 24.322C30.7399 23.95 30.2059 23.764 29.5219 23.764C28.8739 23.764 28.3579 23.95 27.9739 24.322C27.6019 24.694 27.3739 25.192 27.2899 25.816H31.7179ZM41.2978 29.812H41.2438C40.9318 30.304 40.5358 30.664 40.0558 30.892C39.5758 31.108 39.0478 31.216 38.4718 31.216C38.0758 31.216 37.6858 31.162 37.3018 31.054C36.9298 30.946 36.5938 30.784 36.2938 30.568C36.0058 30.352 35.7718 30.082 35.5918 29.758C35.4118 29.434 35.3218 29.056 35.3218 28.624C35.3218 28.156 35.4058 27.76 35.5738 27.436C35.7418 27.1 35.9638 26.824 36.2398 26.608C36.5278 26.38 36.8578 26.2 37.2298 26.068C37.6018 25.936 37.9858 25.84 38.3818 25.78C38.7898 25.708 39.1978 25.666 39.6058 25.654C40.0138 25.63 40.3978 25.618 40.7578 25.618H41.2978V25.384C41.2978 24.844 41.1118 24.442 40.7398 24.178C40.3678 23.902 39.8938 23.764 39.3178 23.764C38.8618 23.764 38.4358 23.848 38.0398 24.016C37.6438 24.172 37.3018 24.388 37.0138 24.664L35.8798 23.53C36.3598 23.038 36.9178 22.684 37.5538 22.468C38.2018 22.252 38.8678 22.144 39.5518 22.144C40.1638 22.144 40.6798 22.216 41.0998 22.36C41.5198 22.492 41.8678 22.666 42.1438 22.882C42.4198 23.098 42.6298 23.35 42.7738 23.638C42.9298 23.914 43.0378 24.196 43.0978 24.484C43.1698 24.772 43.2118 25.054 43.2238 25.33C43.2358 25.594 43.2418 25.828 43.2418 26.032V31H41.2978V29.812ZM41.1718 27.13H40.7218C40.4218 27.13 40.0858 27.142 39.7138 27.166C39.3418 27.19 38.9878 27.25 38.6518 27.346C38.3278 27.43 38.0518 27.562 37.8238 27.742C37.5958 27.91 37.4818 28.15 37.4818 28.462C37.4818 28.666 37.5238 28.84 37.6078 28.984C37.7038 29.116 37.8238 29.23 37.9678 29.326C38.1118 29.422 38.2738 29.494 38.4538 29.542C38.6338 29.578 38.8138 29.596 38.9938 29.596C39.7378 29.596 40.2838 29.422 40.6318 29.074C40.9918 28.714 41.1718 28.228 41.1718 27.616V27.13ZM52.4058 29.704H52.3698C52.0578 30.232 51.6378 30.616 51.1098 30.856C50.5818 31.096 50.0118 31.216 49.3998 31.216C48.7278 31.216 48.1278 31.102 47.5998 30.874C47.0838 30.634 46.6398 30.31 46.2678 29.902C45.8958 29.494 45.6138 29.014 45.4218 28.462C45.2298 27.91 45.1338 27.316 45.1338 26.68C45.1338 26.044 45.2358 25.45 45.4398 24.898C45.6438 24.346 45.9258 23.866 46.2858 23.458C46.6578 23.05 47.1018 22.732 47.6178 22.504C48.1338 22.264 48.6978 22.144 49.3098 22.144C49.7178 22.144 50.0778 22.186 50.3898 22.27C50.7018 22.354 50.9778 22.462 51.2178 22.594C51.4578 22.726 51.6618 22.87 51.8298 23.026C51.9978 23.17 52.1358 23.314 52.2438 23.458H52.2978V17.392H54.4578V31H52.4058V29.704ZM47.2938 26.68C47.2938 27.016 47.3478 27.34 47.4558 27.652C47.5758 27.964 47.7438 28.24 47.9598 28.48C48.1878 28.72 48.4578 28.912 48.7698 29.056C49.0818 29.2 49.4358 29.272 49.8318 29.272C50.2278 29.272 50.5818 29.2 50.8938 29.056C51.2058 28.912 51.4698 28.72 51.6858 28.48C51.9138 28.24 52.0818 27.964 52.1898 27.652C52.3098 27.34 52.3698 27.016 52.3698 26.68C52.3698 26.344 52.3098 26.02 52.1898 25.708C52.0818 25.396 51.9138 25.12 51.6858 24.88C51.4698 24.64 51.2058 24.448 50.8938 24.304C50.5818 24.16 50.2278 24.088 49.8318 24.088C49.4358 24.088 49.0818 24.16 48.7698 24.304C48.4578 24.448 48.1878 24.64 47.9598 24.88C47.7438 25.12 47.5758 25.396 47.4558 25.708C47.3478 26.02 47.2938 26.344 47.2938 26.68ZM62.4279 18.256H67.3959C67.8759 18.256 68.3499 18.316 68.8179 18.436C69.2859 18.544 69.6999 18.73 70.0599 18.994C70.4319 19.246 70.7319 19.576 70.9599 19.984C71.1879 20.392 71.3019 20.884 71.3019 21.46C71.3019 22.18 71.0979 22.774 70.6899 23.242C70.2819 23.71 69.7479 24.046 69.0879 24.25V24.286C69.4839 24.334 69.8499 24.448 70.1859 24.628C70.5339 24.796 70.8279 25.018 71.0679 25.294C71.3079 25.558 71.4939 25.87 71.6259 26.23C71.7699 26.578 71.8419 26.956 71.8419 27.364C71.8419 28.06 71.7039 28.642 71.4279 29.11C71.1519 29.566 70.7859 29.938 70.3299 30.226C69.8859 30.502 69.3699 30.7 68.7819 30.82C68.2059 30.94 67.6179 31 67.0179 31H62.4279V18.256ZM64.6959 23.44H66.7659C67.5219 23.44 68.0859 23.296 68.4579 23.008C68.8419 22.708 69.0339 22.318 69.0339 21.838C69.0339 21.286 68.8359 20.878 68.4399 20.614C68.0559 20.338 67.4319 20.2 66.5679 20.2H64.6959V23.44ZM64.6959 29.056H66.7839C67.0719 29.056 67.3779 29.038 67.7019 29.002C68.0379 28.966 68.3439 28.882 68.6199 28.75C68.8959 28.618 69.1239 28.432 69.3039 28.192C69.4839 27.94 69.5739 27.604 69.5739 27.184C69.5739 26.512 69.3519 26.044 68.9079 25.78C68.4759 25.516 67.7979 25.384 66.8739 25.384H64.6959V29.056ZM73.4697 26.68C73.4697 25.996 73.5897 25.378 73.8297 24.826C74.0817 24.262 74.4177 23.782 74.8377 23.386C75.2577 22.99 75.7557 22.684 76.3317 22.468C76.9077 22.252 77.5197 22.144 78.1677 22.144C78.8157 22.144 79.4277 22.252 80.0037 22.468C80.5797 22.684 81.0777 22.99 81.4977 23.386C81.9177 23.782 82.2477 24.262 82.4877 24.826C82.7397 25.378 82.8657 25.996 82.8657 26.68C82.8657 27.364 82.7397 27.988 82.4877 28.552C82.2477 29.104 81.9177 29.578 81.4977 29.974C81.0777 30.37 80.5797 30.676 80.0037 30.892C79.4277 31.108 78.8157 31.216 78.1677 31.216C77.5197 31.216 76.9077 31.108 76.3317 30.892C75.7557 30.676 75.2577 30.37 74.8377 29.974C74.4177 29.578 74.0817 29.104 73.8297 28.552C73.5897 27.988 73.4697 27.364 73.4697 26.68ZM75.6297 26.68C75.6297 27.016 75.6837 27.34 75.7917 27.652C75.9117 27.964 76.0797 28.24 76.2957 28.48C76.5237 28.72 76.7937 28.912 77.1057 29.056C77.4177 29.2 77.7717 29.272 78.1677 29.272C78.5637 29.272 78.9177 29.2 79.2297 29.056C79.5417 28.912 79.8057 28.72 80.0217 28.48C80.2497 28.24 80.4177 27.964 80.5257 27.652C80.6457 27.34 80.7057 27.016 80.7057 26.68C80.7057 26.344 80.6457 26.02 80.5257 25.708C80.4177 25.396 80.2497 25.12 80.0217 24.88C79.8057 24.64 79.5417 24.448 79.2297 24.304C78.9177 24.16 78.5637 24.088 78.1677 24.088C77.7717 24.088 77.4177 24.16 77.1057 24.304C76.7937 24.448 76.5237 24.64 76.2957 24.88C76.0797 25.12 75.9117 25.396 75.7917 25.708C75.6837 26.02 75.6297 26.344 75.6297 26.68ZM84.4561 26.68C84.4561 25.996 84.5761 25.378 84.8161 24.826C85.0681 24.262 85.4041 23.782 85.8241 23.386C86.2441 22.99 86.7421 22.684 87.3181 22.468C87.8941 22.252 88.5061 22.144 89.1541 22.144C89.8021 22.144 90.4141 22.252 90.9901 22.468C91.5661 22.684 92.0641 22.99 92.4841 23.386C92.9041 23.782 93.2341 24.262 93.4741 24.826C93.7261 25.378 93.8521 25.996 93.8521 26.68C93.8521 27.364 93.7261 27.988 93.4741 28.552C93.2341 29.104 92.9041 29.578 92.4841 29.974C92.0641 30.37 91.5661 30.676 90.9901 30.892C90.4141 31.108 89.8021 31.216 89.1541 31.216C88.5061 31.216 87.8941 31.108 87.3181 30.892C86.7421 30.676 86.2441 30.37 85.8241 29.974C85.4041 29.578 85.0681 29.104 84.8161 28.552C84.5761 27.988 84.4561 27.364 84.4561 26.68ZM86.6161 26.68C86.6161 27.016 86.6701 27.34 86.7781 27.652C86.8981 27.964 87.0661 28.24 87.2821 28.48C87.5101 28.72 87.7801 28.912 88.0921 29.056C88.4041 29.2 88.7581 29.272 89.1541 29.272C89.5501 29.272 89.9041 29.2 90.2161 29.056C90.5281 28.912 90.7921 28.72 91.0081 28.48C91.2361 28.24 91.4041 27.964 91.5121 27.652C91.6321 27.34 91.6921 27.016 91.6921 26.68C91.6921 26.344 91.6321 26.02 91.5121 25.708C91.4041 25.396 91.2361 25.12 91.0081 24.88C90.7921 24.64 90.5281 24.448 90.2161 24.304C89.9041 24.16 89.5501 24.088 89.1541 24.088C88.7581 24.088 88.4041 24.16 88.0921 24.304C87.7801 24.448 87.5101 24.64 87.2821 24.88C87.0661 25.12 86.8981 25.396 86.7781 25.708C86.6701 26.02 86.6161 26.344 86.6161 26.68ZM95.8744 17.392H98.0344V25.942L101.364 22.36H104.136L100.428 26.284L104.37 31H101.508L98.0704 26.59H98.0344V31H95.8744V17.392Z" fill="black"/>
<path d="M114.008 33.072V31.368L128.912 25.896L114.008 20.376V18.696L131 25.152V26.736L114.008 33.072Z" fill="black"/>
</svg>
